/* XPM */
static char *_994cb3bc85045e9fb6c2bf20c01fc2aRRbPxj4zEaNOENSp[] = {
/* columns rows colors chars-per-pixel */
"16 52 15 1 ",
"  c #3C0F00",
". c #1E2516",
"X c #3C3425",
"o c #52160F",
"O c #524B34",
"+ c #61695A",
"@ c #8E0F0F",
"# c #D23C00",
"$ c #E88707",
"% c #878770",
"& c #E8CA61",
"* c #FF00FF",
"= c #A5A59D",
"- c #CACACA",
"; c #E8E8D2",
/* pixels */
"****************",
"****************",
"***oo***********",
"***o@****** ****",
"****@o*****o****",
"****oo*****o ***",
"***********oo***",
"******o*oo*oo***",
"******@**o* o***",
"******@o*** ****",
"***oo*@o**o*****",
"***o#*o@o**@****",
"****##@oo*o#@***",
"****@$#@o#@$#o**",
"**@*o&$@o$#$$@**",
"**@*@$&#o#&$#o**",
"*@$$#&&$@$$@o***",
"*@$$$&$$#&#o****",
"*@$$;$$&$&$#****",
"**@#&&$&&&$@****",
"***@$$;&;&$@*@**",
"**o@$$;&;;;#@#**",
"**@#;$;&&;;$#$**",
"*##$&$;;&;&&;$@*",
"*@$$$;;;;;;&;&@*",
"*@$$&&;;&;;;;$#*",
"--==X=====++====",
"-=+X%%%%=OX%%%%=",
"-XXXXXXXXXXOOXX%",
"=XO+=%+O+O+%+OX%",
"=X%%%-%+%+O+=+O%",
"%X+=O++%=%%O-=+%",
"%X+OOO+%X+++O+O%",
"%XX++OOOOXXOOOO+",
"%%%%%%%%OX++++++",
"OOOOOOOOOOOOOOOO",
"****........****",
"****.XXXXXX.****",
"****XXOOOOOX****",
"****XO....OX****",
"****XO.OO.OX****",
"****XO.OO.OO****",
"****XO.OO.OO****",
"****XO.OO.OO****",
"****X+.++.OO****",
"****X+.++.+O****",
"****X+....+O****",
"****X++++++O****",
"**O-=======O****",
"**O=%%+%%%%O+***",
"**O=%+%%%%%%XO**",
"**O%%O%%%%%%%X**"
};
