/* XPM */
static char *result[] = {
/* columns rows colors chars-per-pixel */
"16 52 14 1 ",
"  c #1E2516",
". c #3C3425",
"X c #52160F",
"o c #524B34",
"O c #61695A",
"+ c #8E0F0F",
"@ c #D23C00",
"# c #E88707",
"$ c #878770",
"% c #E8CA61",
"& c #FF00FF",
"* c #A5A59D",
"= c #CACACA",
"- c #E8E8D2",
/* pixels */
"&&&&&&&&&&&&&&&&",
"&&&&&&&&&&&&&&&&",
"&&&&&&&&&&&&&&&&",
"&&&&&&&&&&&&&&&&",
"&&&&&&&&&&&&&&&&",
"&&&&&&&&&&&X&&&&",
"&&&&&&&&X&&+X&&&",
"&&&&X&&&&X&&+&&&",
"&&&&+&&&X+&X+X&&",
"&&&&X&&&X+&&+X&&",
"&&&&&X&&+X&&X&&&",
"&&&&&+&X@X&X+&&&",
"&&&&&@+X@++&&&&&",
"&&&+&#+X#@#X&&&&",
"&&+@@#++%##X&&&&",
"&&@##%@#%#@+&&&&",
"&&#%-###--%@X&&&",
"&&@##-%%%--#+&&&",
"&&&@@#%%%---@+&&",
"&&&&@#%%-%%%#+&&",
"&&&&@#%-----%@+&",
"&&&@@----%--%#+&",
"&&&@#----%--#@+&",
"&&@#%%--%-%%#X+&",
"&@%-----%--##+&&",
"&@#----%--%%#++&",
"==**.*****OO****",
"=*O.$$$$*o.$$$$*",
"=..........oo..$",
"*.oO*$OoOoO$Oo.$",
"*.$$$=$O$OoO*Oo$",
"$.O*oOO$*$$o=*O$",
"$.OoooO$.OOOoOo$",
"$..OOoooo..ooooO",
"$$$$$$$$o.OOOOOO",
"oooooooooooooooo",
"&&&&        &&&&",
"&&&& ...... &&&&",
"&&&&..ooooo.&&&&",
"&&&&.o    o.&&&&",
"&&&&.o oo o.&&&&",
"&&&&.o oo oo&&&&",
"&&&&.o oo oo&&&&",
"&&&&.o oo oo&&&&",
"&&&&.O OO oo&&&&",
"&&&&.O OO Oo&&&&",
"&&&&.O    Oo&&&&",
"&&&&.OOOOOOo&&&&",
"&&o=*******o&&&&",
"&&o*$$O$$$$oO&&&",
"&&o*$O$$$$$$.o&&",
"&&o$$o$$$$$$$.&&"
};
