/* XPM */
static char *e69ba6120028496fbc8696866fe42146tMtGOzjEDXaQpiUj[] = {
/* columns rows colors chars-per-pixel */
"32 32 4 1 ",
"  c #21FF22",
". c #27FF28",
"o c #4EFF51",
"O c #FF00FF",
/* pixels */
"OOOOOOOOOOOOOOO..OOOOOOOOOOOOOOO",
"OOOOOOOOOOOOOOO..OOOOOOOOOOOOOOO",
"OOOOOOOOOOOOOOO..OOOOOOOOOOOOOOO",
"OOOOOOOOOOOOOOO..OOOOOOOOOOOOOOO",
"OOOOOOOOOOOOOOO..OOOOOOOOOOOOOOO",
"OOOOOOOOOOOOOOO..OOOOOOOOOOOOOOO",
"OOOOOOOOOOOOOOO..OOOOOOOOOOOOOOO",
"OOOOOOOOOOOOOOO..OOOOOOOOOOOOOOO",
"OOOOOOOOOOOOOOO..OOOOOOOOOOOOOOO",
"OOOOOOOOOOOOOOO..OOOOOOOOOOOOOOO",
"OOOOOOOOOOOOOOO..OOOOOOOOOOOOOOO",
"OOOOOOOOOOOOOOO..OOOOOOOOOOOOOOO",
"OOOOOOOOOOOOOOO  OOOOOOOOOOOOOOO",
"OOOOOOOOOOOOOOOooOOOOOOOOOOOOOOO",
"OOOOOOOOOOOOOOOOOOOOOOOOOOOOOOOO",
"............ oOOOOo ............",
"............ oOOOOo ............",
"OOOOOOOOOOOOOOOOOOOOOOOOOOOOOOOO",
"OOOOOOOOOOOOOOOooOOOOOOOOOOOOOOO",
"OOOOOOOOOOOOOOO  OOOOOOOOOOOOOOO",
"OOOOOOOOOOOOOOO..OOOOOOOOOOOOOOO",
"OOOOOOOOOOOOOOO..OOOOOOOOOOOOOOO",
"OOOOOOOOOOOOOOO..OOOOOOOOOOOOOOO",
"OOOOOOOOOOOOOOO..OOOOOOOOOOOOOOO",
"OOOOOOOOOOOOOOO..OOOOOOOOOOOOOOO",
"OOOOOOOOOOOOOOO..OOOOOOOOOOOOOOO",
"OOOOOOOOOOOOOOO..OOOOOOOOOOOOOOO",
"OOOOOOOOOOOOOOO..OOOOOOOOOOOOOOO",
"OOOOOOOOOOOOOOO..OOOOOOOOOOOOOOO",
"OOOOOOOOOOOOOOO..OOOOOOOOOOOOOOO",
"OOOOOOOOOOOOOOO..OOOOOOOOOOOOOOO",
"OOOOOOOOOOOOOOO..OOOOOOOOOOOOOOO"
};
