/* XPM */
static char *_47122f44ef6491682bc8742bb912f53c6Ncrz81y4A3MfhP[] = {
/* columns rows colors chars-per-pixel */
"128 128 5 1 ",
"  c #101010",
". c #0B0B0B",
"X c #303030",
"o c #404040",
"O c #FF00FF",
/* pixels */
"      XOOOOOOOOOOOOOOOOOOOOX           OOOOOOOOOOOOOOOOOOOOX         XOOOOOOOOOOOOOOOOOOOOX          XOOOOOOOOOOOOOOOOOOOX      ",
"        .OOOOOOOOOOOOOOOO.              .OOOOOOOOOOOOOOOO.             .OOOOOOOOOOOOOOOO.              .OOOOOOOOOOOOOOO.        ",
"          .OOOOOOOOOOOO.                  .OOOOOOOOOOOO.                 .OOOOOOOOOOOO.                  .OOOOOOOOOOO.          ",
"O.          .OOOOOOOO.          ..          .OOOOOOOO.          .          .OOOOOOOO.          ..          .OOOOOOO.          .O",
"OOO.          .OOOO.          .OOOO.          .OOOO.          .OOO.          .OOOO.          .OOOO.          .OOO.          .OOO",
"OOOOO.          ..          .OOOOOOOO.          ..          .OOOOOOO.          ..          .OOOOOOOO.          .          .OOOOO",
"OOOOOOO.                  .OOOOOOOOOOOO.                  .OOOOOOOOOOO.                  .OOOOOOOOOOOO.                 .OOOOOOO",
"OOOOOOOOO.              .OOOOOOOOOOOOOOOO.              .OOOOOOOOOOOOOOO.              .OOOOOOOOOOOOOOOO.             XOOOOOOOOO",
"OOOOOOOOOOO            OOOOOOOOOOOOOOOOOOOO            OOOOOOOOOOOOOOOOOOO            OOOOOOOOOOOOOOOOOOOo            XOOOOOOOOO",
"OOOOOOOOO.              .OOOOOOOOOOOOOOOO.              .OOOOOOOOOOOOOOO.              .OOOOOOOOOOOOOOO.                .OOOOOOO",
"OOOOOOO.                  .OOOOOOOOOOOO.                  .OOOOOOOOOOO.                  .OOOOOOOOOOO.                    .OOOOO",
"OOOOO.          ..          .OOOOOOOO.          ..          .OOOOOOO.          ..          .OOOOOOO.          .O.           .OOO",
"OOO.          .OOOO.          .OOOO.          .OOOO.          .OOO.          .OOOO.          .OOO.          .OOOOOO.          .O",
"O.          .OOOOOOOO.          ..          .OOOOOOOO.          .          .OOOOOOOO.          .          .OOOOOOOOOO.          ",
"          .OOOOOOOOOOOO.                  .OOOOOOOOOOOO.                 .OOOOOOOOOOOO.                 .OOOOOOOOOOOOOO.        ",
"        .OOOOOOOOOOOOOOOO.              .OOOOOOOOOOOOOOOO.             .OOOOOOOOOOOOOOOO.             XOOOOOOOOOOOOOOOOOOX      ",
"       oOOOOOOOOOOOOOOOOOOO            OOOOOOOOOOOOOOOOOOOo           oOOOOOOOOOOOOOOOOOOo            XOOOOOOOOOOOOOOOOOOX      ",
"         .OOOOOOOOOOOOOOO.              .OOOOOOOOOOOOOOO.               .OOOOOOOOOOOOOO.                .OOOOOOOOOOOOOO.        ",
".          .OOOOOOOOOOO.                  .OOOOOOOOOOO.                   .OOOOOOOOOO.                    .OOOOOOOOOO.          ",
"OO.          .OOOOOOO.          ..          .OOOOOOO.          .O.          .OOOOOO.          .O.           .OOOOOO.          .O",
"OOOO.          .OOO.          .OOOO.          .OOO.          .OOOOO.          .OO.          .OOOOO.           .OO.          .OOO",
"OOOOOO.          .          .OOOOOOOO.          .          .OOOOOOOOO.                    .OOOOOOOOO.                     .OOOOO",
"OOOOOOOO.                 .OOOOOOOOOOOO.                 .OOOOOOOOOOOOO.                .OOOOOOOOOOOOO.                 .OOOOOOO",
"OOOOOOOOOO.             .OOOOOOOOOOOOOOOO.             .OOOOOOOOOOOOOOOOOX            XOOOOOOOOOOOOOOOOO.             XOOOOOOOOO",
"OOOOOOOOOOOo           oOOOOOOOOOOOOOOOOOOo           oOOOOOOOOOOOOOOOOOOX            XOOOOOOOOOOOOOOOOOOo            XOOOOOOOOO",
"OOOOOOOOO.               .OOOOOOOOOOOOOO.               .OOOOOOOOOOOOOO.                .OOOOOOOOOOOOOO.                .OOOOOOO",
"OOOOOOO.                   .OOOOOOOOOO.                   .OOOOOOOOOO.                    .OOOOOOOOOO.                    .OOOOO",
"OOOOO.          .O.          .OOOOOO.          .O.          .OOOOOO.          .OO.          .OOOOOO.          .O.           .OOO",
"OOO.          .OOOOO.          .OO.          .OOOOO.          .OO.          .OOOOOO.          .OO.          .OOOOO.           .O",
"O.          .OOOOOOOOO.                    .OOOOOOOOO.                    .OOOOOOOOOO.                    .OOOOOOOOO.           ",
"          .OOOOOOOOOOOOO.                .OOOOOOOOOOOOO.                .OOOOOOOOOOOOOO.                .OOOOOOOOOOOOO.         ",
"        .OOOOOOOOOOOOOOOOOX            XOOOOOOOOOOOOOOOOOX            XOOOOOOOOOOOOOOOOOOX            XOOOOOOOOOOOOOOOOO.       ",
"       oOOOOOOOOOOOOOOOOOOX            XOOOOOOOOOOOOOOOOOX            XOOOOOOOOOOOOOOOOOOX            XOOOOOOOOOOOOOOOOOOo      ",
"         .OOOOOOOOOOOOOO.                .OOOOOOOOOOOOO.                .OOOOOOOOOOOOOO.                .OOOOOOOOOOOOOO.        ",
"           .OOOOOOOOOO.                    .OOOOOOOOO.                    .OOOOOOOOOO.                    .OOOOOOOOOO.          ",
"OO.          .OOOOOO.          .OO.          .OOOOO.          .OO.          .OOOOOO.          .OO.          .OOOOOO.          .O",
"OOOO.          .OO.          .OOOOOO.          .O.          .OOOOOO.          .OO.          .OOOOOO.          .OO.          .OOO",
"OOOOOO.                    .OOOOOOOOOO.                   .OOOOOOOOOO.                    .OOOOOOOOOO.                    .OOOOO",
"OOOOOOOO.                .OOOOOOOOOOOOOO.               .OOOOOOOOOOOOOO.                .OOOOOOOOOOOOOO.                .OOOOOOO",
"OOOOOOOOOOX            XOOOOOOOOOOOOOOOOOOo           oOOOOOOOOOOOOOOOOOOX            XOOOOOOOOOOOOOOOOOOX            XOOOOOOOOO",
"OOOOOOOOOOX            XOOOOOOOOOOOOOOOOO.             .OOOOOOOOOOOOOOOOOX            XOOOOOOOOOOOOOOOOOOX            XOOOOOOOOO",
"OOOOOOOO.                .OOOOOOOOOOOOO.                 .OOOOOOOOOOOOO.                .OOOOOOOOOOOOOO.                .OOOOOOO",
"OOOOOO.                    .OOOOOOOOO.          .          .OOOOOOOOO.                    .OOOOOOOOOO.                    .OOOOO",
"OOOO.          .OO.          .OOOOO.          .OOO.          .OOOOO.          .OO.          .OOOOOO.          .OO.          .OOO",
"OO.          .OOOOOO.          .O.          .OOOOOOO.          .O.          .OOOOOO.          .OO.          .OOOOOO.          .O",
".          .OOOOOOOOOO.                   .OOOOOOOOOOO.                   .OOOOOOOOOO.                    .OOOOOOOOOO.          ",
"         .OOOOOOOOOOOOOO.               .OOOOOOOOOOOOOOO.               .OOOOOOOOOOOOOO.                .OOOOOOOOOOOOOO.        ",
"       XOOOOOOOOOOOOOOOOOOo           oOOOOOOOOOOOOOOOOOOOo           oOOOOOOOOOOOOOOOOOOX            XOOOOOOOOOOOOOOOOOOX      ",
"       XOOOOOOOOOOOOOOOOO.             .OOOOOOOOOOOOOOOOO.             .OOOOOOOOOOOOOOOOOX            XOOOOOOOOOOOOOOOOOOX      ",
"         .OOOOOOOOOOOOO.                 .OOOOOOOOOOOOO.                 .OOOOOOOOOOOOO.                .OOOOOOOOOOOOOO.        ",
".          .OOOOOOOOO.          .          .OOOOOOOOO.          .          .OOOOOOOOO.                    .OOOOOOOOOO.          ",
"OO.          .OOOOO.          .OOO.          .OOOOO.          .OOO.          .OOOOO.          .OO.          .OOOOOO.          .O",
"OOOO.          .O.          .OOOOOOO.          .O.          .OOOOOOO.          .O.          .OOOOOO.          .OO.          .OOO",
"OOOOOO.                   .OOOOOOOOOOO.                   .OOOOOOOOOOO.                   .OOOOOOOOOO.                    .OOOOO",
"OOOOOOOO.               .OOOOOOOOOOOOOOO.               .OOOOOOOOOOOOOOO.               .OOOOOOOOOOOOOO.                .OOOOOOO",
"OOOOOOOOOOo           oOOOOOOOOOOOOOOOOOOOo           oOOOOOOOOOOOOOOOOOOOo           oOOOOOOOOOOOOOOOOOOX            XOOOOOOOOO",
"OOOOOOOOO.             .OOOOOOOOOOOOOOOOO.             .OOOOOOOOOOOOOOOOO.             .OOOOOOOOOOOOOOOOOX            XOOOOOOOOO",
"OOOOOOO.                 .OOOOOOOOOOOOO.                 .OOOOOOOOOOOOO.                 .OOOOOOOOOOOOO.                .OOOOOOO",
"OOOOO.          .          .OOOOOOOOO.          .          .OOOOOOOOO.          .          .OOOOOOOOO.                    .OOOOO",
"OOO.          .OOO.          .OOOOO.          .OOO.          .OOOOO.          .OOO.          .OOOOO.          .OO.          .OOO",
"O.          .OOOOOOO.          .O.          .OOOOOOO.          .O.          .OOOOOOO.          .O.          .OOOOOO.          .O",
"          .OOOOOOOOOOO.                   .OOOOOOOOOOO.                   .OOOOOOOOOOO.                   .OOOOOOOOOO.          ",
"        .OOOOOOOOOOOOOOO.               .OOOOOOOOOOOOOOO.               .OOOOOOOOOOOOOOO.               .OOOOOOOOOOOOOO.        ",
"      XOOOOOOOOOOOOOOOOOOO.           oOOOOOOOOOOOOOOOOOOO.           .OOOOOOOOOOOOOOOOOOOX           .OOOOOOOOOOOOOOOOOOX      ",
"      XOOOOOOOOOOOOOOOOOOOOo           OOOOOOOOOOOOOOOOOOOOo         oOOOOOOOOOOOOOOOOOOOOX          oOOOOOOOOOOOOOOOOOOOX      ",
"        .OOOOOOOOOOOOOOOO.              .OOOOOOOOOOOOOOOO.             .OOOOOOOOOOOOOOOO.              .OOOOOOOOOOOOOOO.        ",
"          .OOOOOOOOOOOO.                  .OOOOOOOOOOOO.                 .OOOOOOOOOOOO.                  .OOOOOOOOOOO.          ",
"O.          .OOOOOOOO.          ..          .OOOOOOOO.          .          .OOOOOOOO.          ..          .OOOOOOO.          .O",
"OOO.          .OOOO.          .OOOO.          .OOOO.          .OOO.          .OOOO.          .OOOO.          .OOO.          .OOO",
"OOOOO.          ..          .OOOOOOOO.          ..          .OOOOOOO.          ..          .OOOOOOOO.          .          .OOOOO",
"OOOOOOO.                  .OOOOOOOOOOOO.                  .OOOOOOOOOOO.                  .OOOOOOOOOOOO.                 .OOOOOOO",
"OOOOOOOOO.              .OOOOOOOOOOOOOOOO.              .OOOOOOOOOOOOOOO.              .OOOOOOOOOOOOOOOO.             XOOOOOOOOO",
"OOOOOOOOOOO            OOOOOOOOOOOOOOOOOOOO            OOOOOOOOOOOOOOOOOOO            OOOOOOOOOOOOOOOOOOOo            XOOOOOOOOO",
"OOOOOOOOO.              .OOOOOOOOOOOOOOOO.              .OOOOOOOOOOOOOOO.              .OOOOOOOOOOOOOOO.                .OOOOOOO",
"OOOOOOO.                  .OOOOOOOOOOOO.                  .OOOOOOOOOOO.                  .OOOOOOOOOOO.                    .OOOOO",
"OOOOO.          ..          .OOOOOOOO.          ..          .OOOOOOO.          ..          .OOOOOOO.          .O.           .OOO",
"OOO.          .OOOO.          .OOOO.          .OOOO.          .OOO.          .OOOO.          .OOO.          .OOOOOO.          .O",
"O.          .OOOOOOOO.          ..          .OOOOOOOO.          .          .OOOOOOOO.          .          .OOOOOOOOOO.          ",
"          .OOOOOOOOOOOO.                  .OOOOOOOOOOOO.                 .OOOOOOOOOOOO.                 .OOOOOOOOOOOOOO.        ",
"        .OOOOOOOOOOOOOOOO.              .OOOOOOOOOOOOOOOO.             .OOOOOOOOOOOOOOOO.             XOOOOOOOOOOOOOOOOOOX      ",
"       oOOOOOOOOOOOOOOOOOOO            OOOOOOOOOOOOOOOOOOOo           oOOOOOOOOOOOOOOOOOOo            XOOOOOOOOOOOOOOOOOOX      ",
"         .OOOOOOOOOOOOOOO.              .OOOOOOOOOOOOOOO.               .OOOOOOOOOOOOOO.                .OOOOOOOOOOOOOO.        ",
".          .OOOOOOOOOOO.                  .OOOOOOOOOOO.                   .OOOOOOOOOO.                    .OOOOOOOOOO.          ",
"OO.          .OOOOOOO.          ..          .OOOOOOO.          .O.          .OOOOOO.          .O.           .OOOOOO.          .O",
"OOOO.          .OOO.          .OOOO.          .OOO.          .OOOOO.          .OO.          .OOOOO.           .OO.          .OOO",
"OOOOOO.          .          .OOOOOOOO.          .          .OOOOOOOOO.                    .OOOOOOOOO.                     .OOOOO",
"OOOOOOOO.                 .OOOOOOOOOOOO.                 .OOOOOOOOOOOOO.                .OOOOOOOOOOOOO.                 .OOOOOOO",
"OOOOOOOOOO.             .OOOOOOOOOOOOOOOO.             .OOOOOOOOOOOOOOOOOX            XOOOOOOOOOOOOOOOOO.             XOOOOOOOOO",
"OOOOOOOOOOOo           oOOOOOOOOOOOOOOOOOOo           oOOOOOOOOOOOOOOOOOOX            XOOOOOOOOOOOOOOOOOOo            XOOOOOOOOO",
"OOOOOOOOO.               .OOOOOOOOOOOOOO.               .OOOOOOOOOOOOOO.                .OOOOOOOOOOOOOO.                .OOOOOOO",
"OOOOOOO.                   .OOOOOOOOOO.                   .OOOOOOOOOO.                    .OOOOOOOOOO.                    .OOOOO",
"OOOOO.          .O.          .OOOOOO.          .O.          .OOOOOO.          .OO.          .OOOOOO.          .O.           .OOO",
"OOO.          .OOOOO.          .OO.          .OOOOO.          .OO.          .OOOOOO.          .OO.          .OOOOO.           .O",
"O.          .OOOOOOOOO.                    .OOOOOOOOO.                    .OOOOOOOOOO.                    .OOOOOOOOO.           ",
"          .OOOOOOOOOOOOO.                .OOOOOOOOOOOOO.                .OOOOOOOOOOOOOO.                .OOOOOOOOOOOOO.         ",
"        .OOOOOOOOOOOOOOOOOX            XOOOOOOOOOOOOOOOOOX            XOOOOOOOOOOOOOOOOOOX            XOOOOOOOOOOOOOOOOO.       ",
"       oOOOOOOOOOOOOOOOOOOX            XOOOOOOOOOOOOOOOOOX            XOOOOOOOOOOOOOOOOOOX            XOOOOOOOOOOOOOOOOOOo      ",
"         .OOOOOOOOOOOOOO.                .OOOOOOOOOOOOO.                .OOOOOOOOOOOOOO.                .OOOOOOOOOOOOOO.        ",
"           .OOOOOOOOOO.                    .OOOOOOOOO.                    .OOOOOOOOOO.                    .OOOOOOOOOO.          ",
"OO.          .OOOOOO.          .OO.          .OOOOO.          .OO.          .OOOOOO.          .OO.          .OOOOOO.          .O",
"OOOO.          .OO.          .OOOOOO.          .O.          .OOOOOO.          .OO.          .OOOOOO.          .OO.          .OOO",
"OOOOOO.                    .OOOOOOOOOO.                   .OOOOOOOOOO.                    .OOOOOOOOOO.                    .OOOOO",
"OOOOOOOO.                .OOOOOOOOOOOOOO.               .OOOOOOOOOOOOOO.                .OOOOOOOOOOOOOO.                .OOOOOOO",
"OOOOOOOOOOX            XOOOOOOOOOOOOOOOOOOo           oOOOOOOOOOOOOOOOOOOX            XOOOOOOOOOOOOOOOOOOX            XOOOOOOOOO",
"OOOOOOOOOOX            XOOOOOOOOOOOOOOOOO.             .OOOOOOOOOOOOOOOOOX            XOOOOOOOOOOOOOOOOOOX            XOOOOOOOOO",
"OOOOOOOO.                .OOOOOOOOOOOOO.                 .OOOOOOOOOOOOO.                .OOOOOOOOOOOOOO.                .OOOOOOO",
"OOOOOO.                    .OOOOOOOOO.          .          .OOOOOOOOO.                    .OOOOOOOOOO.                    .OOOOO",
"OOOO.          .OO.          .OOOOO.          .OOO.          .OOOOO.          .OO.          .OOOOOO.          .OO.          .OOO",
"OO.          .OOOOOO.          .O.          .OOOOOOO.          .O.          .OOOOOO.          .OO.          .OOOOOO.          .O",
".          .OOOOOOOOOO.                   .OOOOOOOOOOO.                   .OOOOOOOOOO.                    .OOOOOOOOOO.          ",
"         .OOOOOOOOOOOOOO.               .OOOOOOOOOOOOOOO.               .OOOOOOOOOOOOOO.                .OOOOOOOOOOOOOO.        ",
"       XOOOOOOOOOOOOOOOOOOo           oOOOOOOOOOOOOOOOOOOOo           oOOOOOOOOOOOOOOOOOOX            XOOOOOOOOOOOOOOOOOOX      ",
"       XOOOOOOOOOOOOOOOOO.             .OOOOOOOOOOOOOOOOO.             .OOOOOOOOOOOOOOOOOX            XOOOOOOOOOOOOOOOOOOX      ",
"         .OOOOOOOOOOOOO.                 .OOOOOOOOOOOOO.                 .OOOOOOOOOOOOO.                .OOOOOOOOOOOOOO.        ",
".          .OOOOOOOOO.          .          .OOOOOOOOO.          .          .OOOOOOOOO.                    .OOOOOOOOOO.          ",
"OO.          .OOOOO.          .OOO.          .OOOOO.          .OOO.          .OOOOO.          .OO.          .OOOOOO.          .O",
"OOOO.          .O.          .OOOOOOO.          .O.          .OOOOOOO.          .O.          .OOOOOO.          .OO.          .OOO",
"OOOOOO.                   .OOOOOOOOOOO.                   .OOOOOOOOOOO.                   .OOOOOOOOOO.                    .OOOOO",
"OOOOOOOO.               .OOOOOOOOOOOOOOO.               .OOOOOOOOOOOOOOO.               .OOOOOOOOOOOOOO.                .OOOOOOO",
"OOOOOOOOOOo           oOOOOOOOOOOOOOOOOOOOo           oOOOOOOOOOOOOOOOOOOOo           oOOOOOOOOOOOOOOOOOOX            XOOOOOOOOO",
"OOOOOOOOO.             .OOOOOOOOOOOOOOOOO.             .OOOOOOOOOOOOOOOOO.             .OOOOOOOOOOOOOOOOOX            XOOOOOOOOO",
"OOOOOOO.                 .OOOOOOOOOOOOO.                 .OOOOOOOOOOOOO.                 .OOOOOOOOOOOOO.                .OOOOOOO",
"OOOOO.          .          .OOOOOOOOO.          .          .OOOOOOOOO.          .          .OOOOOOOOO.                    .OOOOO",
"OOO.          .OOO.          .OOOOO.          .OOO.          .OOOOO.          .OOO.          .OOOOO.          .OO.          .OOO",
"O.          .OOOOOOO.          .O.          .OOOOOOO.          .O.          .OOOOOOO.          .O.          .OOOOOO.          .O",
"          .OOOOOOOOOOO.                   .OOOOOOOOOOO.                   .OOOOOOOOOOO.                   .OOOOOOOOOO.          ",
"        .OOOOOOOOOOOOOOO.               .OOOOOOOOOOOOOOO.               .OOOOOOOOOOOOOOO.               .OOOOOOOOOOOOOO.        ",
"      XOOOOOOOOOOOOOOOOOOOX           XOOOOOOOOOOOOOOOOOOOX           XOOOOOOOOOOOOOOOOOOOX           XOOOOOOOOOOOOOOOOOOX      "
};
