/* XPM */
static char *_118c5bbca3745bb8044c98079214af2ZQTlvSeOoNy2LWVq[] = {
/* columns rows colors chars-per-pixel */
"128 128 2 1 ",
"  c #000000",
". c #FF00FF",
/* pixels */
"      ......................           .....................         ......................          .....................      ",
"       ....................            ....................           ....................            ...................       ",
"        ..................              ..................             ..................              .................        ",
"         ................                ................               ................                ...............         ",
"          ..............                  ..............                 ..............                  .............          ",
"           ............                    ............                   ............                    ...........           ",
".           ..........                      ..........                     ..........                      .........           .",
"..           ........           ..           ........           .           ........           ..           .......           ..",
"...           ......           ....           ......           ...           ......           ....           .....           ...",
"....           ....           ......           ....           .....           ....           ......           ...           ....",
".....           ..           ........           ..           .......           ..           ........           .           .....",
"......                      ..........                      .........                      ..........                     ......",
".......                    ............                    ...........                    ............                   .......",
"........                  ..............                  .............                  ..............                 ........",
".........                ................                ...............                ................               .........",
"..........              ..................              .................              ..................             ..........",
"...........            ....................            ...................            ....................            ..........",
"...........            ....................            ...................            ...................              .........",
"..........              ..................              .................              .................                ........",
".........                ................                ...............                ...............                  .......",
"........                  ..............                  .............                  .............                    ......",
".......                    ............                    ...........                    ...........                      .....",
"......                      ..........                      .........                      .........           .            ....",
".....           ..           ........           ..           .......           ..           .......           ...            ...",
"....           ....           ......           ....           .....           ....           .....           ......           ..",
"...           ......           ....           ......           ...           ......           ...           ........           .",
"..           ........           ..           ........           .           ........           .           ..........           ",
".           ..........                      ..........                     ..........                     ............          ",
"           ............                    ............                   ............                   ..............         ",
"          ..............                  ..............                 ..............                 ................        ",
"         ................                ................               ................               ..................       ",
"        ..................              ..................             ..................             ....................      ",
"       ....................            ....................           ....................            ....................      ",
"        ...................            ...................             ..................              ..................       ",
"         .................              .................               ................                ................        ",
"          ...............                ...............                 ..............                  ..............         ",
"           .............                  .............                   ............                    ............          ",
".           ...........                    ...........                     ..........                      ..........           ",
"..           .........                      .........           .           ........           .            ........           .",
"...           .......           ..           .......           ...           ......           ...            ......           ..",
"....           .....           ....           .....           .....           ....           .....            ....           ...",
".....           ...           ......           ...           .......           ..           .......            ..           ....",
"......           .           ........           .           .........                      .........                       .....",
".......                     ..........                     ...........                    ...........                     ......",
"........                   ............                   .............                  .............                   .......",
".........                 ..............                 ...............                ...............                 ........",
"..........               ................               .................              .................               .........",
"...........             ..................             ...................            ...................             ..........",
"............           ....................           ....................            ....................            ..........",
"...........             ..................             ..................              ..................              .........",
"..........               ................               ................                ................                ........",
".........                 ..............                 ..............                  ..............                  .......",
"........                   ............                   ............                    ............                    ......",
".......                     ..........                     ..........                      ..........                      .....",
"......           .           ........           .           ........           ..           ........           .            ....",
".....           ...           ......           ...           ......           ....           ......           ...            ...",
"....           .....           ....           .....           ....           ......           ....           .....            ..",
"...           .......           ..           .......           ..           ........           ..           .......            .",
"..           .........                      .........                      ..........                      .........            ",
".           ...........                    ...........                    ............                    ...........           ",
"           .............                  .............                  ..............                  .............          ",
"          ...............                ...............                ................                ...............         ",
"         .................              .................              ..................              .................        ",
"        ...................            ...................            ....................            ...................       ",
"       ....................            ...................            ....................            ....................      ",
"        ..................              .................              ..................              ..................       ",
"         ................                ...............                ................                ................        ",
"          ..............                  .............                  ..............                  ..............         ",
"           ............                    ...........                    ............                    ............          ",
"            ..........                      .........                      ..........                      ..........           ",
"..           ........           ..           .......           ..           ........           ..           ........           .",
"...           ......           ....           .....           ....           ......           ....           ......           ..",
"....           ....           ......           ...           ......           ....           ......           ....           ...",
".....           ..           ........           .           ........           ..           ........           ..           ....",
"......                      ..........                     ..........                      ..........                      .....",
".......                    ............                   ............                    ............                    ......",
"........                  ..............                 ..............                  ..............                  .......",
".........                ................               ................                ................                ........",
"..........              ..................             ..................              ..................              .........",
"...........            ....................           ....................            ....................            ..........",
"...........            ...................             ...................            ....................            ..........",
"..........              .................               .................              ..................              .........",
".........                ...............                 ...............                ................                ........",
"........                  .............                   .............                  ..............                  .......",
".......                    ...........                     ...........                    ............                    ......",
"......                      .........           .           .........                      ..........                      .....",
".....           ..           .......           ...           .......           ..           ........           ..           ....",
"....           ....           .....           .....           .....           ....           ......           ....           ...",
"...           ......           ...           .......           ...           ......           ....           ......           ..",
"..           ........           .           .........           .           ........           ..           ........           .",
".           ..........                     ...........                     ..........                      ..........           ",
"           ............                   .............                   ............                    ............          ",
"          ..............                 ...............                 ..............                  ..............         ",
"         ................               .................               ................                ................        ",
"        ..................             ...................             ..................              ..................       ",
"       ....................           .....................           ....................            ....................      ",
"       ...................             ...................             ...................            ....................      ",
"        .................               .................               .................              ..................       ",
"         ...............                 ...............                 ...............                ................        ",
"          .............                   .............                   .............                  ..............         ",
"           ...........                     ...........                     ...........                    ............          ",
".           .........           .           .........           .           .........                      ..........           ",
"..           .......           ...           .......           ...           .......           ..           ........           .",
"...           .....           .....           .....           .....           .....           ....           ......           ..",
"....           ...           .......           ...           .......           ...           ......           ....           ...",
".....           .           .........           .           .........           .           ........           ..           ....",
"......                     ...........                     ...........                     ..........                      .....",
".......                   .............                   .............                   ............                    ......",
"........                 ...............                 ...............                 ..............                  .......",
".........               .................               .................               ................                ........",
"..........             ...................             ...................             ..................              .........",
"...........           .....................           .....................           ....................            ..........",
"..........             ...................             ...................             ...................            ..........",
".........               .................               .................               .................              .........",
"........                 ...............                 ...............                 ...............                ........",
".......                   .............                   .............                   .............                  .......",
"......                     ...........                     ...........                     ...........                    ......",
".....           .           .........           .           .........           .           .........                      .....",
"....           ...           .......           ...           .......           ...           .......           ..           ....",
"...           .....           .....           .....           .....           .....           .....           ....           ...",
"..           .......           ...           .......           ...           .......           ...           ......           ..",
".           .........           .           .........           .           .........           .           ........           .",
"           ...........                     ...........                     ...........                     ..........           ",
"          .............                   .............                   .............                   ............          ",
"         ...............                 ...............                 ...............                 ..............         ",
"        .................               .................               .................               ................        ",
"       ...................             ...................             ...................             ..................       ",
"      .....................           .....................           .....................           ....................      "
};
