/* XPM */
static char *_0735_6c5354613e129366fea2c5fdc1029a11458179eb1c1396657da4aae9a1255326[] = {
/* columns rows colors chars-per-pixel */
"91 97 87 1 ",
"  c #020201",
". c #080600",
"X c #070804",
"o c #0A0A05",
"O c #0D0D09",
"+ c #160E06",
"@ c #100F09",
"# c #0F100A",
"$ c #121307",
"% c #181507",
"& c #13130C",
"* c #1D170C",
"= c #16180E",
"- c #1A190E",
"; c #161613",
": c #191710",
"> c #171811",
", c #1C1C12",
"< c #1D1D18",
"1 c #211B0E",
"2 c #2F1B0B",
"3 c #211E13",
"4 c #1E2014",
"5 c #2B230F",
"6 c #232215",
"7 c #282617",
"8 c #25241A",
"9 c #2A261B",
"0 c #27281A",
"q c #2C2A1C",
"w c #372313",
"e c #332B13",
"r c #3F2F17",
"t c #312C1C",
"y c #31301C",
"u c #282620",
"i c #252921",
"p c #2D2C21",
"a c #322E23",
"s c #2F3220",
"d c #343324",
"f c #3A3524",
"g c #3A3825",
"h c #34352B",
"j c #3B3728",
"k c #373929",
"l c #3D3B2B",
"z c #363731",
"x c #3E3D30",
"c c #432F1B",
"v c #43331B",
"b c #4B371B",
"n c #533F1F",
"m c #4F3B23",
"M c #403C2A",
"N c #3E412B",
"B c #5F4323",
"V c #5A462B",
"C c #434230",
"Z c #4B4936",
"A c #4F4B39",
"S c #6B4727",
"D c #774F2B",
"F c #7F532F",
"G c #4C4B40",
"H c #575447",
"J c #595746",
"K c #696551",
"L c #727363",
"P c #875733",
"I c #8F5F37",
"U c #9B633B",
"Y c #A36B3F",
"T c #AB6F43",
"R c #B37347",
"E c #BF7B4B",
"W c #847E6F",
"Q c #CB7F4F",
"! c #CF8353",
"~ c #D78B5B",
"^ c #DF9363",
"/ c #E79B6B",
"( c #EFA373",
") c #F7AB7B",
"_ c #FF00FF",
"` c #FEB384",
"' c #FFBE96",
/* pixels */
"___________________________________________________________________________________________",
"________________________________g__________________________________________________________",
"________________________________.__________________________________________________________",
"______________________________d8$qqM_______________________________________________________",
"____________________________d*66@8y7t______________________________________________________",
"___________________________-6q68-9ytq9_____________________________________________________",
"__________________________706676,9q7ttq____________________________________________________",
"_________________________Cq76644,6qq9qtt___________________________________________________",
"_________________________yq646,4,4q8989t___________________________________________________",
"_________________________y76-4,--4698<9q___________________________________________________",
"_________________________t74-6,=;;88666q___________________________________________________",
"_________________________t64--=-=<336638y__________________________________________________",
"________________________gt73--%-=-,66<,6q__________________________________________________",
"________________________et33---&--,,43,67__________________________________________________",
"________________________3t3,--==%--<,3,67__________________________________________________",
"________________________%q6,-=&=&&=,,3:,,__________________________________________________",
"________________________%q,,--&%%&-,,,:8$7_________________________________________________",
"________________________-q,-=-&&&=-,-<-9M@_________________________________________________",
"________________________-q4---&=&&&:,<:6lq_________________________________________________",
"________________________1q--&-=&=&&=--:,dZl________________________________________________",
"_______________________d373-&-&&$&&;::,,3At________________________________________________",
"_______________________669,--=-&&$O&&:::3qM________________________________________________",
"_______________________*693-&:=$$:h;&-::33j________________________________________________",
"_______________________oq84,&-&#&&;&;=;:,3t________________________________________________",
"_______________________ q8,-=$#>>>;&#O&::69________________________________________________",
"_______________________.q6--#$$><;O;;;;&+,6________________________________________________",
"_______________________ t6-@;<<66i;<<<48<&3________________________________________________",
"_______________________ 6-@60slklk>pa8u8u0%t_______________________________________________",
"______________________@-X$9fjxkNZa-dakhashi*_______________________________________________",
"______________________.,.<u8ahdgg,o-hpdpqsp-_______________________________________________",
"______________________.<8zaqt9997@.#qq68q66,_______________________________________________",
"______________________.%KH,31,<<,OX$<<<3,,=%_______________________________________________",
"______________________o$%@:&;#>;=OO;&&&O;&&&q______________________________________________",
"______________________o@o#;&&;#=-&u<##OOOOO;o______________________________________________",
"______________________@@###;&&=#$&JGoOOOOO##o______________________________________________",
"______________________o@o@O#&#=##>WL.OOOOOO#@______________________________________________",
"______________________o@o####&&;&$gdOOOOOOOOo______________________________________________",
"______________________+O#####;#&&O<<XOOOO##O.______________________________________________",
"______________________@@O&&##&#&;#O;#OoOOOOO%______________________________________________",
"______________________+&OOO&##&;&#O###OOOO$oO______________________________________________",
"______________________+&O&OOO#=#;&oo#OOOOOOO$______________________________________________",
"______________________+,OO&O#&##&#Xo###OOo#O&______________________________________________",
"______________________+-O&&&O##&&#o#&#OOOO##:______________________________________________",
"______________________-:##&#&###>&XO;#OOOO;#*j_____________________________________________",
"______________________*3aO;&##@#;&.O;#OO##;OGq_____________________________________________",
"______________________3,XoOO@#O@&&oO#OOOO;OO -cPII_________________________________________",
"______________________3,OXoO@@o@&;&&#OOOOOOO$3SIPII________________________________________",
"______________________3,XXOoOoooO#OO#OoOOOoOO*nIIPPUI______________________________________",
"______________________3,oOooXooOOOOOOOXOOOOOocBUYYYYUU_____________________________________",
"______________________33+.ooXOOooOoXXoooXOOo@*DTYQQRTUP____________________________________",
"______________________36$XXXoXXXXXoOoXoXXoO.&cDEYEEEYTUI___________________________________",
"______________________16;oXXXXXXXoXoXXXoXo<O&SIRREEEQYUID__________________________________",
"___________________rbbbv-oXXXXoXXXooXXXXoXOO.DEYQTREYYYRIS_________________________________",
"_________________rbbSSSmbXOXXX XXXoXXoOoOoOXSYYEYYE!YYYYYIPD_______________________________",
"________________nSSDFFIIFn oOOooOXXOoOOOO@OIQ~/YEE^!YYYRYYIPS______________________________",
"______________bPFbFFIIUTTUSXXoOOOOO;;#OOOOIQ//Q~^^!RYYYYYYPIIS_____________________________",
"______________FRRFbRRQQ~^/^TXXXOXOXOOOOXoT!//////QEYYUTRTTUIIS_____________________________",
"_____________bF~RUFRQ~~/(`''^ XOX XXXXXXUR!~////~TTYUTTRYYRUIS_____________________________",
"_____________bU~RUFTR!!/`''```/QEUIFPIITYRE^~~!!EYYUTRRYYTRUDS_____________________________",
"____________bbR~RUFUTRQ/''``(~^^^QTTIIUTRRQ~!QTTUUURREYYYYRUDb_____________________________",
"____________bU~RUUFPTRE~'`//^~QQQ~QQTUUUTTRETTIIURREERYYUYYPDbB____________________________",
"___________nFRUUUPcPITRQ`//~EQQQQQQQQTUUUUFPPPIRE!!ERUUUUYUPDnFB___________________________",
"__________nDUUUIPSc3UTRE^~QEEQQEEQERRQRTUUUUFITE!ERRYUIIUUPDSbFPB__________________________",
"__________FFUUIFSnc:PUTRQ~~QEETRQ~QEERREEEEUUIYYEERYUIIIIPDDBbnYD__________________________",
"_________SPURTUSBr71PUUYE!~!YRQQ^/(/~EETTTTETUUYYYYIIIPFFDSBbebFT__________________________",
"________BPTQQRUSne5*FIIYEQ!EYYE!/()(/~!TTRRRTTTUPUUIIPPFDSBBbeenU__________________________",
"________SU!~!RTPBc1*DFIYREQRYUY!/^~!ERUTURRYTTUUPPPPFFDSBBSbe55bD__________________________",
"_______SFE^~QRTIFSw+VFPURRERIPU!!ERUUTT!!ETTRRUIIIPPDDSBBSFBe55rB__________________________",
"_______YE/(/QETUPFV*1VFUYRRRPFIRYUUEE!!TTTUYYTYIYRIISSDDFFIBv5+5n__________________________",
"_______U(''')QRUUPSc*nSFUYRRDBDIURY!!TTUUR~^/!!RRIYRYPFFPUTDve55___________________________",
"_______Q/)()(^ETUIFn5bBSPIUUSbBDPR!TIIER!^/!!EEEERRIIRYUUTTPvve5___________________________",
"______SQ((//~~ETUPFbc2cbDDPISvvSPYRPPR!~!!YUUUTTTTRRRPITTTEUnbv5___________________________",
"______U/^/QQ!~QTYIPbc*cbBSDPSbbPYIFP!!ERUUR!~^/(/^~~RUPIYRETnnv5___________________________",
"______~^QQEEQ~QEYUPbr*5cbBDDSbBPPDPR!RUR!^(^!TUFUT!/^!RPIUYRSbv____________________________",
"_____R^~QQEEEQQERYUBr*+7vbBVVnDDbbYYPR!!EYRYFFSSDPPI!//!UDUYSbv____________________________",
"_____Q~QQERTTREERTIBr5o+55rvrSnebIUYRUPDPPPPPUUUTTUPPITQQPDSSnv____________________________",
"_____EQQEEETYTTRRTUbcw* ++5cbc*bDFUUPDDDIUTRE!!!/``/QTPIYTPDBSn____________________________",
"_____QEEQQQQUPPYRYPSbw+  +5br$cDIPSBSDUYRYUPPPPYY!/``^^!EETIIBn____________________________",
"_____QEEQ^~QYPFPIIFBbw+X  55.rSFBvBDURYRUPSBSR^^/``^QYIUUUIURUnb5__________________________",
"____YERE/(/QEISnSFFBcw* ;   5nSB5BSUYUPPnSPQ/^!YYISSBBBBBBSPURRUPBB________________________",
"____RRE~^QTUUPScrnSmr*+X + 55nncbSUTUDSnPQ!TYYFSSFIR!/)))(/~~RUPSBvBB______________________",
"____EREQETTYTIFSnnmcr51X  ++rrreBPRUFDFYQTIDSbIUR~^()/!TUPPPPPPPDbveeB_____________________",
"____TTRUTTQEEYUIPSBbcr*X;   55 rSTEYSYQ~ISnbURR!))/!RPSBBBBBnnnnvrr555B____________________",
"____TYYRRQRYYIPFBncw51+o*     5nDQ~YY~!ISbUTQQ!!~YBvBSDFFIIPPIYTPSv555e____________________",
"____RTEERRIPPPFnncrw5****     5bDT~~~USnSTQ~!!TDrcBSDDIY!~RRU!/!TDPvr55____________________",
"____RRETUTREERUPPFFSnb21X     5nSYERUnnDRQ~!TPBrBSDDPIU!^!^RPQ^~YUTEP5n____________________",
"____TYYTREEEEYYUIFFSBnreo     5nDPYInbFR^QTPBrrnSDURPPR!E!QRPQ^QTIQQUFnb___________________",
"____TYQ~~QRURYYUFScrrr5*X +   5bDPUDrFR^RIPBrrbSDIR!UUE^R^~YY^RRRY(TYTBnnn_________________",
"___RY~~~EREETIFSBBBnbr++XXX   5nSFBbBR^RIFSt;nSDIY!EYY!^^^~PR(URUR^!~TTUSBD________________",
"___YE~EYTRETFFFFIIPPSBbw1ter   bBBbrDQRIBBr;bBSDIYYEIRE^~^!RQ~PU^R^Y!~~RFFSDb______________",
"___EEEUE!~UPFPUTYYYTTPSbwwee   5recbRYUBBe;;nSSSIIYYIPT(^/R!(^YR(!~/(~T~TPDBbF_____________",
"__TET!~TIPYYYUFSSSFYQEYPSbee    555BUIDbr ;ebDSSIIIIIPT^//R!((R!'~~/^T^~^TRIYSnv___________",
"__RT!!IFPIUPFSSSPYRQQEYYFFbee   555SIDSbe ;ebSDSDDIIFDY~^(!R^/R^'^^^UE(~Q~YYDSDSSS_________",
"__RQ~ISFUEFBFIIFFFFE~YYYYFSber   52BSSSb5 e*eBDDPSSDDBUY!(^UY'^((EEQR^~R/~ITTYPFSPSn_______",
"_TQ~RPPUETFRYYYTUPFUE~YYYYFBrrrb  5rnBbe* 75+bDPDDDDBBDUR'^UY'^^^RTUT/UE)~~!EUTIDBFPS______",
"IR!^UIR~EY!UPPPITTUPUR~YYYFSrrrbnSerbnb55+e21*BPPDDnDDDTR(^PU'^(QI!RU/E^(('~PTQDPIUFFPFP___",
"PT^EPY(~R^YFFSSSFUYYPPITFFFSrrrbbBFernb5+5c55*5BDDBnBBDDYQQPR)^EEYIPE^(/''/(~~E~~~RFFFPDbB_"
};
