/* XPM */
static char *_2e4fd8a775449c185745dfbaeef743cusP6WDI0jo8xDgqL[] = {
/* columns rows colors chars-per-pixel */
"30 12 9 1 ",
"  c #404000",
". c #585400",
"X c #706C00",
"o c #848400",
"O c #9C9C00",
"+ c #B4AC00",
"@ c #CCC400",
"# c #E4D800",
"$ c #FF00FF",
/* pixels */
"$$$$$$$$$$$$$$$$$$$$$$$$$$$$$$",
"$$$$$$$$$$$$$$$$$$$O@##@O$$$$$",
"$$$$$$$$$$$$$$$$$$$@@XX@@O$$$$",
"$$$#+@########+#+##@o$$o@O$$$$",
"$$$oXOOOOOOOOOXOXOO@O$$O#O$$$$",
"$$$$$XXX.XXX.. . .X+@##@+X$$$$",
"$$$$$+#+.+#+$$$$$$$oO++Oo$$$$$",
"$$$$$+#+.+#+$$$$$$$$XXXX$$$$$$",
"$$$$$...$...$$$$$$$$$$$$$$$$$$",
"$$$$$$$$$$$$$$$$$$$$$$$$$$$$$$",
"$$$$$$$$$$$$$$$$$$$$$$$$$$$$$$",
"$$$$$$$$$$$$$$$$$$$$$$$$$$$$$$"
};
