/* XPM */
static char *result[] = {
/* columns rows colors chars-per-pixel */
"17 17 4 1 ",
"  c #ED1C24",
". c #FF7F27",
"X c #FF00FF",
"o c #FFFFFF",
/* pixels */
"XXXXXXXX XXXXXXXX",
"XXXXXXX   XXXXXXX",
"XXXXXXX . XXXXXXX",
"XXXXXXX . XXXXXXX",
"XXXXXX  .  XXXXXX",
"XXXXXX .o. XXXXXX",
"XXXX   .o.   XXXX",
"X    ..ooo..    X",
"  ...ooooooo...  ",
"X    ..ooo..    X",
"XXXX   .o.   XXXX",
"XXXXXX .o. XXXXXX",
"XXXXXX  .  XXXXXX",
"XXXXXXX . XXXXXXX",
"XXXXXXX . XXXXXXX",
"XXXXXXX   XXXXXXX",
"XXXXXXXX XXXXXXXX"
};
